<svg width="59" height="50" viewBox="0 0 59 50" fill="none" xmlns="http://www.w3.org/2000/svg">
<path d="M11.0045 46V37.2727H14.2772C14.9477 37.2727 15.5102 37.3892 15.9647 37.6222C16.4221 37.8551 16.7673 38.1818 17.0002 38.6023C17.236 39.0199 17.3539 39.5071 17.3539 40.0639C17.3539 40.6236 17.2346 41.1094 16.996 41.5213C16.7602 41.9304 16.4122 42.2472 15.9519 42.4716C15.4917 42.6932 14.9264 42.804 14.2559 42.804H11.925V41.4915H14.0429C14.4349 41.4915 14.7559 41.4375 15.0059 41.3295C15.2559 41.2187 15.4406 41.0582 15.5599 40.848C15.6821 40.6349 15.7431 40.3736 15.7431 40.0639C15.7431 39.7543 15.6821 39.4901 15.5599 39.2713C15.4377 39.0497 15.2517 38.8821 15.0017 38.7685C14.7517 38.652 14.4292 38.5938 14.0343 38.5938H12.5855V46H11.0045ZM15.513 42.0455L17.6735 46H15.9093L13.7872 42.0455H15.513ZM21.5024 46.1278C20.8632 46.1278 20.3092 45.9872 19.8404 45.706C19.3717 45.4247 19.0081 45.0312 18.7495 44.5256C18.4939 44.0199 18.366 43.429 18.366 42.7528C18.366 42.0767 18.4939 41.4844 18.7495 40.9759C19.0081 40.4673 19.3717 40.0724 19.8404 39.7912C20.3092 39.5099 20.8632 39.3693 21.5024 39.3693C22.1416 39.3693 22.6956 39.5099 23.1643 39.7912C23.6331 40.0724 23.9953 40.4673 24.251 40.9759C24.5095 41.4844 24.6387 42.0767 24.6387 42.7528C24.6387 43.429 24.5095 44.0199 24.251 44.5256C23.9953 45.0312 23.6331 45.4247 23.1643 45.706C22.6956 45.9872 22.1416 46.1278 21.5024 46.1278ZM21.5109 44.892C21.8575 44.892 22.1473 44.7969 22.3802 44.6065C22.6132 44.4134 22.7865 44.1548 22.9001 43.831C23.0166 43.5071 23.0748 43.1463 23.0748 42.7486C23.0748 42.348 23.0166 41.9858 22.9001 41.6619C22.7865 41.3352 22.6132 41.0753 22.3802 40.8821C22.1473 40.6889 21.8575 40.5923 21.5109 40.5923C21.1558 40.5923 20.8603 40.6889 20.6245 40.8821C20.3916 41.0753 20.2169 41.3352 20.1004 41.6619C19.9868 41.9858 19.9299 42.348 19.9299 42.7486C19.9299 43.1463 19.9868 43.5071 20.1004 43.831C20.2169 44.1548 20.3916 44.4134 20.6245 44.6065C20.8603 44.7969 21.1558 44.892 21.5109 44.892ZM29.2165 39.4545V40.6477H25.4537V39.4545H29.2165ZM26.3827 37.8864H27.9253V44.0312C27.9253 44.2386 27.9566 44.3977 28.0191 44.5085C28.0844 44.6165 28.1696 44.6903 28.2747 44.7301C28.3799 44.7699 28.4963 44.7898 28.6242 44.7898C28.7208 44.7898 28.8088 44.7827 28.8884 44.7685C28.9708 44.7543 29.0333 44.7415 29.0759 44.7301L29.3358 45.9361C29.2534 45.9645 29.1355 45.9957 28.9821 46.0298C28.8316 46.0639 28.6469 46.0838 28.4282 46.0895C28.0418 46.1009 27.6938 46.0426 27.3841 45.9148C27.0745 45.7841 26.8287 45.5824 26.6469 45.3097C26.4679 45.0369 26.3799 44.696 26.3827 44.2869V37.8864ZM32.3902 46.1321C31.9754 46.1321 31.6018 46.0582 31.2694 45.9105C30.9399 45.7599 30.6785 45.5384 30.4853 45.2457C30.295 44.9531 30.1998 44.5923 30.1998 44.1634C30.1998 43.794 30.268 43.4886 30.4044 43.2472C30.5407 43.0057 30.7268 42.8125 30.9626 42.6676C31.1984 42.5227 31.464 42.4134 31.7595 42.3395C32.0578 42.2628 32.366 42.2074 32.6842 42.1733C33.0677 42.1335 33.3788 42.098 33.6174 42.0668C33.8561 42.0327 34.0294 41.9815 34.1373 41.9134C34.2481 41.8423 34.3035 41.733 34.3035 41.5852V41.5597C34.3035 41.2386 34.2083 40.9901 34.018 40.8139C33.8277 40.6378 33.5535 40.5497 33.1956 40.5497C32.8177 40.5497 32.518 40.6321 32.2964 40.7969C32.0777 40.9616 31.9299 41.1562 31.8532 41.3807L30.4129 41.1761C30.5265 40.7784 30.714 40.446 30.9754 40.179C31.2368 39.9091 31.5564 39.7074 31.9342 39.5739C32.312 39.4375 32.7296 39.3693 33.187 39.3693C33.5024 39.3693 33.8163 39.4062 34.1288 39.4801C34.4413 39.554 34.7268 39.6761 34.9853 39.8466C35.2439 40.0142 35.4512 40.2429 35.6075 40.5327C35.7666 40.8224 35.8461 41.1847 35.8461 41.6193V46H34.3632V45.1009H34.312C34.2183 45.2827 34.0862 45.4531 33.9157 45.6122C33.7481 45.7685 33.5365 45.8949 33.2808 45.9915C33.0279 46.0852 32.7311 46.1321 32.3902 46.1321ZM32.7907 44.9986C33.1004 44.9986 33.3689 44.9375 33.5961 44.8153C33.8234 44.6903 33.9981 44.5256 34.1203 44.321C34.2453 44.1165 34.3078 43.8935 34.3078 43.652V42.8807C34.2595 42.9205 34.1771 42.9574 34.0606 42.9915C33.947 43.0256 33.8191 43.0554 33.6771 43.081C33.535 43.1065 33.3944 43.1293 33.2552 43.1491C33.116 43.169 32.9953 43.1861 32.893 43.2003C32.6629 43.2315 32.4569 43.2827 32.2751 43.3537C32.0933 43.4247 31.9498 43.5241 31.8447 43.652C31.7396 43.777 31.687 43.9389 31.687 44.1378C31.687 44.4219 31.7907 44.6364 31.9981 44.7812C32.2055 44.9261 32.4697 44.9986 32.7907 44.9986ZM40.6657 39.4545V40.6477H36.9029V39.4545H40.6657ZM37.8319 37.8864H39.3745V44.0312C39.3745 44.2386 39.4058 44.3977 39.4683 44.5085C39.5336 44.6165 39.6189 44.6903 39.724 44.7301C39.8291 44.7699 39.9456 44.7898 40.0734 44.7898C40.17 44.7898 40.2581 44.7827 40.3376 44.7685C40.42 44.7543 40.4825 44.7415 40.5251 44.7301L40.785 45.9361C40.7027 45.9645 40.5848 45.9957 40.4314 46.0298C40.2808 46.0639 40.0961 46.0838 39.8774 46.0895C39.491 46.1009 39.143 46.0426 38.8333 45.9148C38.5237 45.7841 38.2779 45.5824 38.0961 45.3097C37.9171 45.0369 37.8291 44.696 37.8319 44.2869V37.8864ZM44.7833 46.1278C44.127 46.1278 43.5603 45.9915 43.083 45.7188C42.6086 45.4432 42.2435 45.054 41.9878 44.5511C41.7321 44.0455 41.6043 43.4503 41.6043 42.7656C41.6043 42.0923 41.7321 41.5014 41.9878 40.9929C42.2463 40.4815 42.6071 40.0838 43.0702 39.7997C43.5333 39.5128 44.0773 39.3693 44.7023 39.3693C45.1057 39.3693 45.4864 39.4347 45.8444 39.5653C46.2051 39.6932 46.5233 39.892 46.7989 40.1619C47.0773 40.4318 47.2961 40.7756 47.4551 41.1932C47.6142 41.608 47.6938 42.1023 47.6938 42.6761V43.1491H42.3287V42.1094H46.2151C46.2122 41.8139 46.1483 41.5511 46.0233 41.321C45.8983 41.0881 45.7236 40.9048 45.4992 40.7713C45.2776 40.6378 45.0191 40.571 44.7236 40.571C44.4083 40.571 44.1313 40.6477 43.8926 40.8011C43.654 40.9517 43.4679 41.1506 43.3344 41.3977C43.2037 41.642 43.137 41.9105 43.1341 42.2031V43.1108C43.1341 43.4915 43.2037 43.8182 43.3429 44.0909C43.4821 44.3608 43.6767 44.5682 43.9267 44.7131C44.1767 44.8551 44.4694 44.9261 44.8046 44.9261C45.029 44.9261 45.2321 44.8949 45.414 44.8324C45.5958 44.767 45.7534 44.6719 45.887 44.5469C46.0205 44.4219 46.1213 44.267 46.1895 44.0824L47.6299 44.2443C47.539 44.625 47.3657 44.9574 47.11 45.2415C46.8571 45.5227 46.5333 45.7415 46.1384 45.8977C45.7435 46.0511 45.2918 46.1278 44.7833 46.1278Z" fill="#CFD1D5"/>
<g clip-path="url(#clip0_66_952)">
<path d="M42.7501 5.00002V12.5M42.7501 12.5H35.2501M42.7501 12.5L36.9626 7.05002C35.2384 5.32469 33.0001 4.2065 30.585 3.86395C28.17 3.52139 25.7091 3.97304 23.573 5.15082C21.437 6.3286 19.7417 8.16871 18.7424 10.3939C17.7432 12.619 17.4942 15.1086 18.0331 17.4876C18.5719 19.8665 19.8693 22.0059 21.7298 23.5834C23.5903 25.1608 25.9131 26.0908 28.3481 26.2333C30.7832 26.3757 33.1985 25.7229 35.2303 24.3731C37.262 23.0234 38.8001 21.0499 39.6126 18.75" stroke="#CFD1D5" stroke-width="4" stroke-linecap="round" stroke-linejoin="round"/>
</g>
<defs>
<clipPath id="clip0_66_952">
<rect width="30" height="30" fill="white" transform="translate(14)"/>
</clipPath>
</defs>
</svg>
