<svg width="47" height="50" viewBox="0 0 47 50" fill="none" xmlns="http://www.w3.org/2000/svg">
<path fill-rule="evenodd" clip-rule="evenodd" d="M12.9603 11.25C14.4804 7.18215 18.4019 4.28571 23 4.28571C27.5981 4.28571 31.5196 7.18215 33.0397 11.25H12.9603ZM12.2989 14.4643C12.2901 14.6418 12.2857 14.8204 12.2857 15C12.2857 20.3711 16.2379 24.8192 21.3929 25.5945V19.5918L16.9062 14.4643H12.2989ZM24.6071 25.5945C29.762 24.8192 33.7143 20.3711 33.7143 15C33.7143 14.8204 33.7098 14.6418 33.7012 14.4643H29.0937L24.6071 19.5918V25.5945ZM23 0C14.7157 0 8 6.71574 8 15C8 23.2843 14.7157 30 23 30C31.2843 30 38 23.2843 38 15C38 6.71574 31.2843 0 23 0Z" fill="#28653C"/>
<path d="M16.1278 39.6719C16.088 39.2997 15.9204 39.0099 15.6249 38.8026C15.3323 38.5952 14.9516 38.4915 14.4829 38.4915C14.1533 38.4915 13.8707 38.5412 13.6349 38.6406C13.3991 38.7401 13.2187 38.875 13.0937 39.0455C12.9687 39.2159 12.9048 39.4105 12.9019 39.6293C12.9019 39.8111 12.9431 39.9687 13.0255 40.1023C13.1107 40.2358 13.2258 40.3494 13.3707 40.4432C13.5155 40.5341 13.6761 40.6108 13.8522 40.6733C14.0283 40.7358 14.2059 40.7884 14.3849 40.831L15.203 41.0355C15.5326 41.1122 15.8494 41.2159 16.1533 41.3466C16.4602 41.4773 16.7343 41.642 16.9758 41.8409C17.2201 42.0398 17.4133 42.2798 17.5553 42.5611C17.6974 42.8423 17.7684 43.1719 17.7684 43.5497C17.7684 44.0611 17.6377 44.5114 17.3763 44.9006C17.115 45.2869 16.7371 45.5895 16.2428 45.8082C15.7513 46.0241 15.1562 46.1321 14.4573 46.1321C13.7783 46.1321 13.1888 46.027 12.6888 45.8168C12.1917 45.6065 11.8025 45.2997 11.5212 44.8963C11.2428 44.4929 11.0923 44.0014 11.0695 43.4219H12.6249C12.6477 43.7259 12.7414 43.9787 12.9062 44.1804C13.0709 44.3821 13.2854 44.5327 13.5496 44.6321C13.8167 44.7315 14.115 44.7812 14.4445 44.7812C14.7883 44.7812 15.0894 44.7301 15.3479 44.6278C15.6093 44.5227 15.8138 44.3778 15.9616 44.1932C16.1093 44.0057 16.1846 43.7869 16.1874 43.5369C16.1846 43.3097 16.1178 43.1222 15.9871 42.9744C15.8565 42.8239 15.6732 42.6989 15.4374 42.5994C15.2045 42.4972 14.9317 42.4062 14.6192 42.3267L13.6263 42.071C12.9076 41.8864 12.3394 41.6065 11.9218 41.2315C11.507 40.8537 11.2996 40.3523 11.2996 39.7273C11.2996 39.2131 11.4388 38.7628 11.7173 38.3764C11.9985 37.9901 12.3806 37.6903 12.8636 37.4773C13.3465 37.2614 13.8934 37.1534 14.5042 37.1534C15.1235 37.1534 15.6661 37.2614 16.132 37.4773C16.6008 37.6903 16.9687 37.9872 17.2357 38.3679C17.5028 38.7457 17.6405 39.1804 17.6491 39.6719H16.1278ZM19.1097 48.4545V39.4545H20.6267V40.5369H20.7162C20.7957 40.3778 20.9079 40.2088 21.0528 40.0298C21.1977 39.848 21.3937 39.6932 21.6409 39.5653C21.8881 39.4347 22.2034 39.3693 22.5869 39.3693C23.0926 39.3693 23.5486 39.4986 23.9548 39.7571C24.3639 40.0128 24.6878 40.392 24.9264 40.8949C25.1679 41.3949 25.2886 42.0085 25.2886 42.7358C25.2886 43.4545 25.1707 44.0653 24.9349 44.5682C24.6991 45.071 24.3781 45.4545 23.9719 45.7188C23.5656 45.983 23.1054 46.1151 22.5912 46.1151C22.2162 46.1151 21.9051 46.0526 21.6579 45.9276C21.4108 45.8026 21.2119 45.652 21.0614 45.4759C20.9136 45.2969 20.7986 45.1278 20.7162 44.9688H20.6523V48.4545H19.1097ZM20.6224 42.7273C20.6224 43.1506 20.6821 43.5213 20.8014 43.8395C20.9236 44.1577 21.0983 44.4062 21.3256 44.5852C21.5557 44.7614 21.8341 44.8494 22.1608 44.8494C22.5017 44.8494 22.7872 44.7585 23.0173 44.5767C23.2474 44.392 23.4207 44.1406 23.5372 43.8224C23.6565 43.5014 23.7162 43.1364 23.7162 42.7273C23.7162 42.321 23.6579 41.9602 23.5415 41.6449C23.425 41.3295 23.2517 41.0824 23.0216 40.9034C22.7915 40.7244 22.5045 40.6349 22.1608 40.6349C21.8312 40.6349 21.5514 40.7216 21.3213 40.8949C21.0912 41.0682 20.9165 41.3111 20.7972 41.6236C20.6807 41.9361 20.6224 42.304 20.6224 42.7273ZM26.6097 46V39.4545H28.1523V46H26.6097ZM27.3852 38.5256C27.1409 38.5256 26.9307 38.4446 26.7545 38.2827C26.5784 38.1179 26.4903 37.9205 26.4903 37.6903C26.4903 37.4574 26.5784 37.2599 26.7545 37.098C26.9307 36.9332 27.1409 36.8509 27.3852 36.8509C27.6324 36.8509 27.8426 36.9332 28.0159 37.098C28.192 37.2599 28.2801 37.4574 28.2801 37.6903C28.2801 37.9205 28.192 38.1179 28.0159 38.2827C27.8426 38.4446 27.6324 38.5256 27.3852 38.5256ZM31.2812 42.1648V46H29.7386V39.4545H31.213V40.5668H31.2897C31.4403 40.2003 31.6803 39.9091 32.0099 39.6932C32.3423 39.4773 32.7528 39.3693 33.2414 39.3693C33.6931 39.3693 34.0866 39.4659 34.4218 39.6591C34.7599 39.8523 35.0212 40.1321 35.2059 40.4986C35.3934 40.8651 35.4857 41.3097 35.4829 41.8324V46H33.9403V42.071C33.9403 41.6335 33.8266 41.2912 33.5994 41.044C33.3749 40.7969 33.0638 40.6733 32.6661 40.6733C32.3962 40.6733 32.1562 40.733 31.9459 40.8523C31.7386 40.9687 31.5752 41.1378 31.4559 41.3594C31.3394 41.581 31.2812 41.8494 31.2812 42.1648Z" fill="#28653C"/>
</svg>
