<svg width="59" height="50" viewBox="0 0 59 50" fill="none" xmlns="http://www.w3.org/2000/svg">
<path d="M13.2929 38.598V37.2727H20.2559V38.598H17.5585V46H15.9903V38.598H13.2929ZM20.8504 46V39.4545H22.3461V40.5455H22.4143C22.5336 40.1676 22.7382 39.8764 23.0279 39.6719C23.3206 39.4645 23.6544 39.3608 24.0294 39.3608C24.1146 39.3608 24.2098 39.3651 24.3149 39.3736C24.4228 39.3793 24.5123 39.3892 24.5833 39.4034V40.8224C24.518 40.7997 24.4143 40.7798 24.2723 40.7628C24.1331 40.7429 23.9981 40.733 23.8674 40.733C23.5862 40.733 23.3333 40.794 23.1089 40.9162C22.8873 41.0355 22.7126 41.2017 22.5848 41.4148C22.4569 41.6278 22.393 41.8736 22.393 42.152V46H20.8504ZM27.3745 46.1321C26.9598 46.1321 26.5862 46.0582 26.2538 45.9105C25.9243 45.7599 25.6629 45.5384 25.4697 45.2457C25.2794 44.9531 25.1842 44.5923 25.1842 44.1634C25.1842 43.794 25.2524 43.4886 25.3887 43.2472C25.5251 43.0057 25.7112 42.8125 25.947 42.6676C26.1828 42.5227 26.4484 42.4134 26.7439 42.3395C27.0421 42.2628 27.3504 42.2074 27.6686 42.1733C28.0521 42.1335 28.3632 42.098 28.6018 42.0668C28.8404 42.0327 29.0137 41.9815 29.1217 41.9134C29.2325 41.8423 29.2879 41.733 29.2879 41.5852V41.5597C29.2879 41.2386 29.1927 40.9901 29.0024 40.8139C28.812 40.6378 28.5379 40.5497 28.1799 40.5497C27.8021 40.5497 27.5024 40.6321 27.2808 40.7969C27.062 40.9616 26.9143 41.1562 26.8376 41.3807L25.3973 41.1761C25.5109 40.7784 25.6984 40.446 25.9598 40.179C26.2211 39.9091 26.5407 39.7074 26.9186 39.5739C27.2964 39.4375 27.714 39.3693 28.1714 39.3693C28.4868 39.3693 28.8007 39.4062 29.1132 39.4801C29.4257 39.554 29.7112 39.6761 29.9697 39.8466C30.2282 40.0142 30.4356 40.2429 30.5919 40.5327C30.751 40.8224 30.8305 41.1847 30.8305 41.6193V46H29.3475V45.1009H29.2964C29.2027 45.2827 29.0706 45.4531 28.9001 45.6122C28.7325 45.7685 28.5208 45.8949 28.2652 45.9915C28.0123 46.0852 27.7154 46.1321 27.3745 46.1321ZM27.7751 44.9986C28.0848 44.9986 28.3532 44.9375 28.5805 44.8153C28.8078 44.6903 28.9825 44.5256 29.1046 44.321C29.2296 44.1165 29.2921 43.8935 29.2921 43.652V42.8807C29.2439 42.9205 29.1615 42.9574 29.045 42.9915C28.9314 43.0256 28.8035 43.0554 28.6615 43.081C28.5194 43.1065 28.3788 43.1293 28.2396 43.1491C28.1004 43.169 27.9796 43.1861 27.8774 43.2003C27.6473 43.2315 27.4413 43.2827 27.2595 43.3537C27.0777 43.4247 26.9342 43.5241 26.8291 43.652C26.724 43.777 26.6714 43.9389 26.6714 44.1378C26.6714 44.4219 26.7751 44.6364 26.9825 44.7812C27.1899 44.9261 27.4541 44.9986 27.7751 44.9986ZM37.5549 41.1847L36.1487 41.3381C36.1089 41.196 36.0393 41.0625 35.9399 40.9375C35.8433 40.8125 35.7126 40.7116 35.5478 40.6349C35.3831 40.5582 35.1814 40.5199 34.9427 40.5199C34.6217 40.5199 34.3518 40.5895 34.1331 40.7287C33.9171 40.8679 33.8106 41.0483 33.8135 41.2699C33.8106 41.4602 33.8802 41.6151 34.0223 41.7344C34.1671 41.8537 34.4058 41.9517 34.7382 42.0284L35.8546 42.267C36.474 42.4006 36.9342 42.6122 37.2353 42.902C37.5393 43.1918 37.6927 43.571 37.6956 44.0398C37.6927 44.4517 37.572 44.8153 37.3333 45.1307C37.0975 45.4432 36.7694 45.6875 36.349 45.8636C35.9285 46.0398 35.4456 46.1278 34.9001 46.1278C34.099 46.1278 33.4541 45.9602 32.9654 45.625C32.4768 45.2869 32.1856 44.8168 32.0919 44.2145L33.5961 44.0696C33.6643 44.3651 33.8092 44.5881 34.0308 44.7386C34.2524 44.8892 34.5407 44.9645 34.8958 44.9645C35.2623 44.9645 35.5564 44.8892 35.7779 44.7386C36.0024 44.5881 36.1146 44.402 36.1146 44.1804C36.1146 43.9929 36.0421 43.8381 35.8973 43.7159C35.7552 43.5937 35.5336 43.5 35.2325 43.4347L34.116 43.2003C33.4882 43.0696 33.0237 42.8494 32.7225 42.5398C32.4214 42.2273 32.2723 41.8324 32.2751 41.3551C32.2723 40.9517 32.3816 40.6023 32.6032 40.3068C32.8277 40.0085 33.1387 39.7784 33.5365 39.6165C33.937 39.4517 34.3987 39.3693 34.9214 39.3693C35.6885 39.3693 36.2921 39.5327 36.7325 39.8594C37.1757 40.1861 37.4498 40.6278 37.5549 41.1847ZM40.5102 42.1648V46H38.9676V37.2727H40.4761V40.5668H40.5528C40.7062 40.1974 40.9434 39.9062 41.2644 39.6932C41.5883 39.4773 42.0002 39.3693 42.5002 39.3693C42.9548 39.3693 43.3511 39.4645 43.6892 39.6548C44.0272 39.8452 44.2886 40.1236 44.4733 40.4901C44.6608 40.8565 44.7545 41.304 44.7545 41.8324V46H43.2119V42.071C43.2119 41.6307 43.0983 41.2884 42.871 41.044C42.6466 40.7969 42.3312 40.6733 41.925 40.6733C41.6522 40.6733 41.4079 40.733 41.192 40.8523C40.9789 40.9687 40.8113 41.1378 40.6892 41.3594C40.5698 41.581 40.5102 41.8494 40.5102 42.1648Z" fill="#CFD1D5"/>
<path d="M17.75 7.5H20.25M20.25 7.5H40.25M20.25 7.5V25C20.25 25.663 20.5134 26.2989 20.9822 26.7678C21.4511 27.2366 22.087 27.5 22.75 27.5H35.25C35.913 27.5 36.5489 27.2366 37.0178 26.7678C37.4866 26.2989 37.75 25.663 37.75 25V7.5M24 7.5V5C24 4.33696 24.2634 3.70107 24.7322 3.23223C25.2011 2.76339 25.837 2.5 26.5 2.5H31.5C32.163 2.5 32.7989 2.76339 33.2678 3.23223C33.7366 3.70107 34 4.33696 34 5V7.5M26.5 13.75V21.25M31.5 13.75V21.25" stroke="#CFD1D5" stroke-width="4" stroke-linecap="round" stroke-linejoin="round"/>
</svg>
