<svg width="44" height="50" viewBox="0 0 44 50" fill="none" xmlns="http://www.w3.org/2000/svg">
<path fill-rule="evenodd" clip-rule="evenodd" d="M35.1135 5.76844C35.6365 5.24541 35.6365 4.39744 35.1135 3.87441C34.5904 3.35139 33.7425 3.35139 33.2194 3.87441L31.0765 6.01727C30.5535 6.5403 30.5535 7.38827 31.0765 7.9113C31.5996 8.43433 32.4475 8.43433 32.9706 7.9113L35.1135 5.76844ZM17.0235 23.0357V10.4464C17.0235 8.96709 18.2228 7.76786 19.7021 7.76786C21.1814 7.76786 22.3807 8.96709 22.3807 10.4464V17.8865L27.5052 17.7918C30.7789 17.7313 33.3835 20.5202 33.1 23.7821L32.5592 30H14.8807L10.6594 23.6681C9.99897 22.6774 10.1296 21.3582 10.9715 20.5163C11.947 19.5408 13.5286 19.5408 14.5041 20.5163L17.0235 23.0357Z" fill="#EEEEEE"/>
<path fill-rule="evenodd" clip-rule="evenodd" d="M19.1666 3.21429C15.9121 3.21429 13.2737 5.85261 13.2737 9.10714C13.2737 9.54482 13.3212 9.96956 13.4106 10.3771C13.6008 11.2441 13.0521 12.1011 12.1852 12.2913C11.3182 12.4815 10.4612 11.9329 10.271 11.0659C10.1323 10.4335 10.0595 9.7779 10.0595 9.10714C10.0595 4.07741 14.1369 0 19.1666 0C20.5604 0 21.8854 0.314229 23.0705 0.877221C23.8722 1.25808 24.2134 2.21676 23.8326 3.01849C23.4517 3.82024 22.493 4.16143 21.6913 3.78056C20.928 3.41796 20.0733 3.21429 19.1666 3.21429ZM11.9889 21.3932C11.6072 21.7749 11.5735 22.3826 11.9108 22.8041L15.9267 27.8241C16.3888 28.4016 16.2951 29.2444 15.7175 29.7064C15.14 30.1686 14.2972 30.075 13.8351 29.4973L9.81914 24.4774C8.62928 22.9901 8.74804 20.846 10.0949 19.4991C11.5546 18.0393 13.9214 18.0393 15.3812 19.4991L15.6845 19.8024V10.4464C15.6845 8.22741 17.4833 6.42857 19.7023 6.42857C21.9213 6.42857 23.7202 8.22741 23.7202 10.4464V16.5222L27.4155 16.4539C31.513 16.3782 34.7605 19.8921 34.3626 23.9711L33.8925 28.7908C33.8207 29.5269 33.1656 30.0656 32.4293 29.9936C31.6933 29.9218 31.1548 29.2669 31.2265 28.5306L31.6967 23.7109C31.939 21.2264 29.961 19.0859 27.465 19.132L22.4056 19.2255C22.0462 19.2322 21.6992 19.0941 21.4427 18.8422C21.1861 18.5904 21.0416 18.246 21.0416 17.8865V10.4464C21.0416 9.70676 20.442 9.10714 19.7023 9.10714C18.9626 9.10714 18.363 9.70676 18.363 10.4464V23.0357C18.363 23.5774 18.0367 24.0658 17.5363 24.273C17.0358 24.4804 16.4598 24.3658 16.0767 23.9826L13.4872 21.3932C13.0734 20.9794 12.4026 20.9794 11.9889 21.3932ZM32.0237 0C28.1775 0 25.0595 3.11801 25.0595 6.96429C25.0595 10.8106 28.1775 13.9286 32.0237 13.9286C35.8701 13.9286 38.988 10.8106 38.988 6.96429C38.988 3.11801 35.8701 0 32.0237 0ZM35.1135 3.87441C35.6365 4.39744 35.6365 5.24541 35.1135 5.76844L32.9706 7.9113C32.4475 8.43433 31.5996 8.43433 31.0765 7.9113C30.5535 7.38827 30.5535 6.5403 31.0765 6.01727L33.2194 3.87441C33.7425 3.35139 34.5904 3.35139 35.1135 3.87441Z" fill="#28653C"/>
<path d="M9.35361 46V37.2727H10.9346V40.9673H14.9786V37.2727H16.5638V46H14.9786V42.2926H10.9346V46H9.35361ZM21.0702 46.1278C20.431 46.1278 19.877 45.9872 19.4083 45.706C18.9395 45.4247 18.5759 45.0312 18.3174 44.5256C18.0617 44.0199 17.9339 43.429 17.9339 42.7528C17.9339 42.0767 18.0617 41.4844 18.3174 40.9759C18.5759 40.4673 18.9395 40.0724 19.4083 39.7912C19.877 39.5099 20.431 39.3693 21.0702 39.3693C21.7094 39.3693 22.2634 39.5099 22.7322 39.7912C23.2009 40.0724 23.5631 40.4673 23.8188 40.9759C24.0773 41.4844 24.2066 42.0767 24.2066 42.7528C24.2066 43.429 24.0773 44.0199 23.8188 44.5256C23.5631 45.0312 23.2009 45.4247 22.7322 45.706C22.2634 45.9872 21.7094 46.1278 21.0702 46.1278ZM21.0788 44.892C21.4253 44.892 21.7151 44.7969 21.9481 44.6065C22.181 44.4134 22.3543 44.1548 22.468 43.831C22.5844 43.5071 22.6427 43.1463 22.6427 42.7486C22.6427 42.348 22.5844 41.9858 22.468 41.6619C22.3543 41.3352 22.181 41.0753 21.9481 40.8821C21.7151 40.6889 21.4253 40.5923 21.0788 40.5923C20.7236 40.5923 20.4282 40.6889 20.1924 40.8821C19.9594 41.0753 19.7847 41.3352 19.6682 41.6619C19.5546 41.9858 19.4978 42.348 19.4978 42.7486C19.4978 43.1463 19.5546 43.5071 19.6682 43.831C19.7847 44.1548 19.9594 44.4134 20.1924 44.6065C20.4282 44.7969 20.7236 44.892 21.0788 44.892ZM27.0585 37.2727V46H25.5159V37.2727H27.0585ZM31.0738 46.1151C30.5596 46.1151 30.0993 45.983 29.6931 45.7188C29.2868 45.4545 28.9658 45.071 28.73 44.5682C28.4942 44.0653 28.3763 43.4545 28.3763 42.7358C28.3763 42.0085 28.4957 41.3949 28.7343 40.8949C28.9758 40.392 29.3011 40.0128 29.7101 39.7571C30.1192 39.4986 30.5752 39.3693 31.078 39.3693C31.4616 39.3693 31.7769 39.4347 32.0241 39.5653C32.2712 39.6932 32.4672 39.848 32.6121 40.0298C32.757 40.2088 32.8692 40.3778 32.9488 40.5369H33.0127V37.2727H34.5596V46H33.0425V44.9688H32.9488C32.8692 45.1278 32.7542 45.2969 32.6036 45.4759C32.453 45.652 32.2542 45.8026 32.007 45.9276C31.7599 46.0526 31.4488 46.1151 31.0738 46.1151ZM31.5042 44.8494C31.8309 44.8494 32.1093 44.7614 32.3394 44.5852C32.5695 44.4062 32.7442 44.1577 32.8636 43.8395C32.9829 43.5213 33.0425 43.1506 33.0425 42.7273C33.0425 42.304 32.9829 41.9361 32.8636 41.6236C32.7471 41.3111 32.5738 41.0682 32.3437 40.8949C32.1164 40.7216 31.8366 40.6349 31.5042 40.6349C31.1604 40.6349 30.8735 40.7244 30.6434 40.9034C30.4133 41.0824 30.24 41.3295 30.1235 41.6449C30.007 41.9602 29.9488 42.321 29.9488 42.7273C29.9488 43.1364 30.007 43.5014 30.1235 43.8224C30.2428 44.1406 30.4175 44.392 30.6476 44.5767C30.8806 44.7585 31.1661 44.8494 31.5042 44.8494Z" fill="#28653C"/>
</svg>
